STARTFONT 2.1
COMMENT Recovered from cm12.ast (MIT CADR textual AST font source)
FONT MIT-CADR-CM12
SIZE 14 72 72
FONTBOUNDINGBOX 15 14 0 -3
STARTPROPERTIES 2
FONT_ASCENT 11
FONT_DESCENT 3
ENDPROPERTIES
CHARS 127
STARTCHAR C0001
ENCODING -1 1
SWIDTH 500 0
DWIDTH 7 0
BBX 5 14 1 -3
BITMAP
00
00
10
20
40
80
40
20
10
00
F8
00
00
00
ENDCHAR
STARTCHAR C0002
ENCODING -1 2
SWIDTH 0 0
DWIDTH 0 0
BBX 1 14 0 -3
BITMAP
00
00
00
00
00
00
00
00
00
00
00
00
00
00
ENDCHAR
STARTCHAR C0003
ENCODING -1 3
SWIDTH 429 0
DWIDTH 6 0
BBX 4 14 1 -3
BITMAP
00
00
00
60
90
90
60
00
60
90
90
60
00
00
ENDCHAR
STARTCHAR C0004
ENCODING -1 4
SWIDTH 0 0
DWIDTH 0 0
BBX 1 14 0 -3
BITMAP
00
00
00
00
00
00
00
00
00
00
00
00
00
00
ENDCHAR
STARTCHAR C0005
ENCODING -1 5
SWIDTH 643 0
DWIDTH 9 0
BBX 9 14 0 -3
BITMAP
0000
0000
0000
0000
0080
0180
0300
1600
3C00
5800
9000
0000
0000
0000
ENDCHAR
STARTCHAR C0006
ENCODING -1 6
SWIDTH 571 0
DWIDTH 8 0
BBX 6 14 1 -3
BITMAP
00
00
00
FC
00
00
FC
00
00
FC
00
00
00
00
ENDCHAR
STARTCHAR C0007
ENCODING -1 7
SWIDTH 643 0
DWIDTH 9 0
BBX 5 14 2 -3
BITMAP
00
00
00
00
00
70
88
88
88
70
00
00
00
00
ENDCHAR
STARTCHAR C0008
ENCODING -1 8
SWIDTH 0 0
DWIDTH 0 0
BBX 1 14 0 -3
BITMAP
00
00
00
00
00
00
00
00
00
00
00
00
00
00
ENDCHAR
STARTCHAR C0009
ENCODING -1 9
SWIDTH 0 0
DWIDTH 0 0
BBX 1 14 0 -3
BITMAP
00
00
00
00
00
00
00
00
00
00
00
00
00
00
ENDCHAR
STARTCHAR C000A
ENCODING -1 10
SWIDTH 0 0
DWIDTH 0 0
BBX 1 14 0 -3
BITMAP
00
00
00
00
00
00
00
00
00
00
00
00
00
00
ENDCHAR
STARTCHAR C000B
ENCODING -1 11
SWIDTH 0 0
DWIDTH 0 0
BBX 1 14 0 -3
BITMAP
00
00
00
00
00
00
00
00
00
00
00
00
00
00
ENDCHAR
STARTCHAR C000C
ENCODING -1 12
SWIDTH 0 0
DWIDTH 0 0
BBX 1 14 0 -3
BITMAP
00
00
00
00
00
00
00
00
00
00
00
00
00
00
ENDCHAR
STARTCHAR C000D
ENCODING -1 13
SWIDTH 0 0
DWIDTH 0 0
BBX 1 14 0 -3
BITMAP
00
00
00
00
00
00
00
00
00
00
00
00
00
00
ENDCHAR
STARTCHAR C000E
ENCODING -1 14
SWIDTH 571 0
DWIDTH 8 0
BBX 6 14 1 -3
BITMAP
00
00
04
08
FC
10
20
FC
40
80
00
00
00
00
ENDCHAR
STARTCHAR C000F
ENCODING -1 15
SWIDTH 786 0
DWIDTH 11 0
BBX 10 14 0 -3
BITMAP
0200
0100
0080
3FC0
4080
8100
8200
9000
6000
0000
0000
0000
0000
0000
ENDCHAR
STARTCHAR C0010
ENCODING -1 16
SWIDTH 0 0
DWIDTH 0 0
BBX 1 14 0 -3
BITMAP
00
00
00
00
00
00
00
00
00
00
00
00
00
00
ENDCHAR
STARTCHAR C0011
ENCODING -1 17
SWIDTH 643 0
DWIDTH 9 0
BBX 7 14 0 -3
BITMAP
00
10
28
44
C6
44
44
44
44
44
44
44
00
00
ENDCHAR
STARTCHAR C0012
ENCODING -1 18
SWIDTH 500 0
DWIDTH 7 0
BBX 5 14 1 -3
BITMAP
00
00
40
20
10
08
10
20
40
00
F8
00
00
00
ENDCHAR
STARTCHAR C0013
ENCODING -1 19
SWIDTH 714 0
DWIDTH 10 0
BBX 7 14 1 -3
BITMAP
80
80
80
9E
20
40
3C
02
02
04
78
00
00
00
ENDCHAR
STARTCHAR C0014
ENCODING -1 20
SWIDTH 1071 0
DWIDTH 15 0
BBX 13 14 2 -3
BITMAP
0000
C000
C000
C000
C000
C000
C000
C000
C000
C000
C000
FFF8
FFF8
0000
ENDCHAR
STARTCHAR C0015
ENCODING -1 21
SWIDTH 643 0
DWIDTH 9 0
BBX 7 14 1 -3
BITMAP
00
00
FE
00
00
00
00
00
00
00
00
00
00
00
ENDCHAR
STARTCHAR C0016
ENCODING -1 22
SWIDTH 857 0
DWIDTH 12 0
BBX 8 14 2 -3
BITMAP
00
02
04
08
14
22
42
C2
34
0C
03
00
00
00
ENDCHAR
STARTCHAR C0017
ENCODING -1 23
SWIDTH 857 0
DWIDTH 12 0
BBX 10 14 1 -3
BITMAP
0000
3F00
4080
8040
8040
8C40
8C40
8040
8040
4080
3F00
0000
0000
0000
ENDCHAR
STARTCHAR C0018
ENCODING -1 24
SWIDTH 1000 0
DWIDTH 14 0
BBX 11 14 1 -3
BITMAP
0000
0000
0000
0000
0000
0000
D560
AAA0
0000
0000
0000
0000
0000
0000
ENDCHAR
STARTCHAR C0019
ENCODING -1 25
SWIDTH 786 0
DWIDTH 11 0
BBX 9 14 1 -3
BITMAP
0000
0000
FF80
FB80
FD80
FE80
8000
FE80
FD80
FB80
FF80
0000
0000
0000
ENDCHAR
STARTCHAR C001A
ENCODING -1 26
SWIDTH 0 0
DWIDTH 0 0
BBX 1 14 0 -3
BITMAP
00
00
00
00
00
00
00
00
00
00
00
00
00
00
ENDCHAR
STARTCHAR C001B
ENCODING -1 27
SWIDTH 643 0
DWIDTH 9 0
BBX 8 14 0 -3
BITMAP
00
00
00
00
00
00
08
FC
02
01
02
FC
08
00
ENDCHAR
STARTCHAR C001C
ENCODING -1 28
SWIDTH 0 0
DWIDTH 0 0
BBX 1 14 0 -3
BITMAP
00
00
00
00
00
00
00
00
00
00
00
00
00
00
ENDCHAR
STARTCHAR C001D
ENCODING -1 29
SWIDTH 857 0
DWIDTH 12 0
BBX 10 14 1 -3
BITMAP
0000
FFC0
8040
8040
8040
8040
8040
8040
8040
8040
FFC0
0000
0000
0000
ENDCHAR
STARTCHAR C001E
ENCODING -1 30
SWIDTH 1071 0
DWIDTH 15 0
BBX 13 14 0 -3
BITMAP
0000
0018
0018
0018
0018
0018
0018
0018
0018
0018
0018
FFF8
FFF8
0000
ENDCHAR
STARTCHAR C001F
ENCODING -1 31
SWIDTH 0 0
DWIDTH 0 0
BBX 1 14 0 -3
BITMAP
00
00
00
00
00
00
00
00
00
00
00
00
00
00
ENDCHAR
STARTCHAR C0020
ENCODING -1 32
SWIDTH 357 0
DWIDTH 5 0
BBX 1 14 0 -3
BITMAP
00
00
00
00
00
00
00
00
00
00
00
00
00
00
ENDCHAR
STARTCHAR C0021
ENCODING -1 33
SWIDTH 357 0
DWIDTH 5 0
BBX 1 14 1 -3
BITMAP
00
80
80
80
80
80
80
80
80
00
80
80
00
00
ENDCHAR
STARTCHAR C0022
ENCODING -1 34
SWIDTH 429 0
DWIDTH 6 0
BBX 4 14 1 -3
BITMAP
00
90
90
90
90
90
00
00
00
00
00
00
00
00
ENDCHAR
STARTCHAR C0023
ENCODING -1 35
SWIDTH 571 0
DWIDTH 8 0
BBX 6 14 1 -3
BITMAP
00
00
24
24
FC
48
48
FC
90
90
00
00
00
00
ENDCHAR
STARTCHAR C0024
ENCODING -1 36
SWIDTH 643 0
DWIDTH 9 0
BBX 7 14 1 -3
BITMAP
00
10
10
7C
92
90
7C
12
92
7C
10
10
00
00
ENDCHAR
STARTCHAR C0025
ENCODING -1 37
SWIDTH 857 0
DWIDTH 12 0
BBX 10 14 1 -3
BITMAP
0000
6000
9080
9100
6200
0400
0800
1180
2240
4240
0180
0000
0000
0000
ENDCHAR
STARTCHAR C0026
ENCODING -1 38
SWIDTH 857 0
DWIDTH 12 0
BBX 10 14 1 -3
BITMAP
0000
0000
0000
7000
8000
8000
73C0
8200
8400
8800
7000
0000
0000
0000
ENDCHAR
STARTCHAR C0027
ENCODING -1 39
SWIDTH 286 0
DWIDTH 4 0
BBX 1 14 1 -3
BITMAP
80
80
80
80
00
00
00
00
00
00
00
00
00
00
ENDCHAR
STARTCHAR C0028
ENCODING -1 40
SWIDTH 429 0
DWIDTH 6 0
BBX 4 14 1 -3
BITMAP
00
10
20
40
40
80
80
80
80
40
40
20
10
00
ENDCHAR
STARTCHAR C0029
ENCODING -1 41
SWIDTH 429 0
DWIDTH 6 0
BBX 4 14 1 -3
BITMAP
00
80
40
20
20
10
10
10
10
20
20
40
80
00
ENDCHAR
STARTCHAR C002A
ENCODING -1 42
SWIDTH 643 0
DWIDTH 9 0
BBX 7 14 1 -3
BITMAP
00
00
00
10
54
28
C6
28
54
10
00
00
00
00
ENDCHAR
STARTCHAR C002B
ENCODING -1 43
SWIDTH 643 0
DWIDTH 9 0
BBX 7 14 1 -3
BITMAP
00
00
10
10
10
FE
10
10
10
00
00
00
00
00
ENDCHAR
STARTCHAR C002C
ENCODING -1 44
SWIDTH 286 0
DWIDTH 4 0
BBX 2 14 1 -3
BITMAP
00
00
00
00
00
00
00
00
00
C0
C0
40
80
00
ENDCHAR
STARTCHAR C002D
ENCODING -1 45
SWIDTH 643 0
DWIDTH 9 0
BBX 7 14 1 -3
BITMAP
00
00
00
00
00
FE
00
00
00
00
00
00
00
00
ENDCHAR
STARTCHAR C002E
ENCODING -1 46
SWIDTH 286 0
DWIDTH 4 0
BBX 2 14 1 -3
BITMAP
00
00
00
00
00
00
00
00
00
C0
C0
00
00
00
ENDCHAR
STARTCHAR C002F
ENCODING -1 47
SWIDTH 571 0
DWIDTH 8 0
BBX 6 14 1 -3
BITMAP
00
04
08
08
10
10
20
20
40
40
80
80
00
00
ENDCHAR
STARTCHAR C0030
ENCODING -1 48
SWIDTH 571 0
DWIDTH 8 0
BBX 6 14 1 -3
BITMAP
00
78
84
84
84
84
84
84
84
84
78
00
00
00
ENDCHAR
STARTCHAR C0031
ENCODING -1 49
SWIDTH 571 0
DWIDTH 8 0
BBX 2 14 3 -3
BITMAP
00
40
C0
40
40
40
40
40
40
40
40
00
00
00
ENDCHAR
STARTCHAR C0032
ENCODING -1 50
SWIDTH 571 0
DWIDTH 8 0
BBX 6 14 1 -3
BITMAP
00
78
84
04
04
08
10
20
40
80
FC
00
00
00
ENDCHAR
STARTCHAR C0033
ENCODING -1 51
SWIDTH 571 0
DWIDTH 8 0
BBX 6 14 1 -3
BITMAP
00
78
84
04
04
38
04
04
04
84
78
00
00
00
ENDCHAR
STARTCHAR C0034
ENCODING -1 52
SWIDTH 571 0
DWIDTH 8 0
BBX 6 14 1 -3
BITMAP
00
08
18
28
28
48
48
88
FC
08
08
00
00
00
ENDCHAR
STARTCHAR C0035
ENCODING -1 53
SWIDTH 571 0
DWIDTH 8 0
BBX 6 14 1 -3
BITMAP
00
FC
80
80
80
F8
04
04
04
04
F8
00
00
00
ENDCHAR
STARTCHAR C0036
ENCODING -1 54
SWIDTH 571 0
DWIDTH 8 0
BBX 6 14 1 -3
BITMAP
00
3C
40
80
80
F8
84
84
84
84
78
00
00
00
ENDCHAR
STARTCHAR C0037
ENCODING -1 55
SWIDTH 571 0
DWIDTH 8 0
BBX 6 14 1 -3
BITMAP
00
FC
04
08
08
10
10
20
20
40
40
00
00
00
ENDCHAR
STARTCHAR C0038
ENCODING -1 56
SWIDTH 571 0
DWIDTH 8 0
BBX 6 14 1 -3
BITMAP
00
78
84
84
84
78
84
84
84
84
78
00
00
00
ENDCHAR
STARTCHAR C0039
ENCODING -1 57
SWIDTH 571 0
DWIDTH 8 0
BBX 6 14 1 -3
BITMAP
00
78
84
84
84
84
7C
04
04
08
F0
00
00
00
ENDCHAR
STARTCHAR C003A
ENCODING -1 58
SWIDTH 286 0
DWIDTH 4 0
BBX 2 14 1 -3
BITMAP
00
00
00
00
C0
C0
00
00
00
C0
C0
00
00
00
ENDCHAR
STARTCHAR C003B
ENCODING -1 59
SWIDTH 286 0
DWIDTH 4 0
BBX 2 14 1 -3
BITMAP
00
00
00
00
C0
C0
00
00
00
C0
C0
40
80
00
ENDCHAR
STARTCHAR C003C
ENCODING -1 60
SWIDTH 500 0
DWIDTH 7 0
BBX 4 14 1 -3
BITMAP
00
00
00
10
20
40
80
40
20
10
00
00
00
00
ENDCHAR
STARTCHAR C003D
ENCODING -1 61
SWIDTH 571 0
DWIDTH 8 0
BBX 6 14 1 -3
BITMAP
00
00
00
00
FC
00
00
FC
00
00
00
00
00
00
ENDCHAR
STARTCHAR C003E
ENCODING -1 62
SWIDTH 500 0
DWIDTH 7 0
BBX 4 14 2 -3
BITMAP
00
00
00
80
40
20
10
20
40
80
00
00
00
00
ENDCHAR
STARTCHAR C003F
ENCODING -1 63
SWIDTH 643 0
DWIDTH 9 0
BBX 6 14 2 -3
BITMAP
00
78
84
84
04
18
20
40
00
60
60
00
00
00
ENDCHAR
STARTCHAR C0040
ENCODING -1 64
SWIDTH 929 0
DWIDTH 13 0
BBX 11 14 1 -3
BITMAP
0000
1F00
2080
4040
8E20
9120
9120
9120
9320
9540
8980
4000
3800
0000
ENDCHAR
STARTCHAR C0041
ENCODING -1 65
SWIDTH 643 0
DWIDTH 9 0
BBX 7 14 1 -3
BITMAP
00
10
10
28
28
44
44
FE
82
82
82
00
00
00
ENDCHAR
STARTCHAR C0042
ENCODING -1 66
SWIDTH 571 0
DWIDTH 8 0
BBX 6 14 1 -3
BITMAP
00
F8
84
84
84
F8
84
84
84
84
F8
00
00
00
ENDCHAR
STARTCHAR C0043
ENCODING -1 67
SWIDTH 786 0
DWIDTH 11 0
BBX 9 14 1 -3
BITMAP
0000
1F00
2080
4000
8000
8000
8000
8080
4100
2200
1C00
0000
0000
0000
ENDCHAR
STARTCHAR C0044
ENCODING -1 68
SWIDTH 786 0
DWIDTH 11 0
BBX 9 14 1 -3
BITMAP
0000
FC00
8200
8100
8080
8080
8080
8080
8100
8200
FC00
0000
0000
0000
ENDCHAR
STARTCHAR C0045
ENCODING -1 69
SWIDTH 500 0
DWIDTH 7 0
BBX 5 14 1 -3
BITMAP
00
F8
80
80
80
F0
80
80
80
80
F8
00
00
00
ENDCHAR
STARTCHAR C0046
ENCODING -1 70
SWIDTH 500 0
DWIDTH 7 0
BBX 5 14 1 -3
BITMAP
00
F8
80
80
80
F8
80
80
80
80
80
00
00
00
ENDCHAR
STARTCHAR C0047
ENCODING -1 71
SWIDTH 786 0
DWIDTH 11 0
BBX 9 14 1 -3
BITMAP
0000
1F00
2080
4000
8000
8380
8080
8080
4080
2100
1E00
0000
0000
0000
ENDCHAR
STARTCHAR C0048
ENCODING -1 72
SWIDTH 643 0
DWIDTH 9 0
BBX 7 14 1 -3
BITMAP
00
82
82
82
82
FE
82
82
82
82
82
00
00
00
ENDCHAR
STARTCHAR C0049
ENCODING -1 73
SWIDTH 214 0
DWIDTH 3 0
BBX 1 14 1 -3
BITMAP
00
80
80
80
80
80
80
80
80
80
80
00
00
00
ENDCHAR
STARTCHAR C004A
ENCODING -1 74
SWIDTH 429 0
DWIDTH 6 0
BBX 4 14 1 -3
BITMAP
00
10
10
10
10
10
10
10
10
10
10
20
C0
00
ENDCHAR
STARTCHAR C004B
ENCODING -1 75
SWIDTH 643 0
DWIDTH 9 0
BBX 7 14 1 -3
BITMAP
00
86
88
90
A0
C0
A0
90
88
84
82
00
00
00
ENDCHAR
STARTCHAR C004C
ENCODING -1 76
SWIDTH 500 0
DWIDTH 7 0
BBX 5 14 1 -3
BITMAP
00
80
80
80
80
80
80
80
80
80
F8
00
00
00
ENDCHAR
STARTCHAR C004D
ENCODING -1 77
SWIDTH 929 0
DWIDTH 13 0
BBX 11 14 1 -3
BITMAP
0000
8020
C060
A0A0
A0A0
9120
9120
8A20
8A20
8420
8420
0000
0000
0000
ENDCHAR
STARTCHAR C004E
ENCODING -1 78
SWIDTH 643 0
DWIDTH 9 0
BBX 7 14 1 -3
BITMAP
00
82
C2
A2
A2
92
92
8A
8A
86
82
00
00
00
ENDCHAR
STARTCHAR C004F
ENCODING -1 79
SWIDTH 786 0
DWIDTH 11 0
BBX 9 14 1 -3
BITMAP
0000
1C00
2200
4100
8080
8080
8080
8080
4100
2200
1C00
0000
0000
0000
ENDCHAR
STARTCHAR C0050
ENCODING -1 80
SWIDTH 500 0
DWIDTH 7 0
BBX 5 14 1 -3
BITMAP
00
F0
88
88
88
F0
80
80
80
80
80
00
00
00
ENDCHAR
STARTCHAR C0051
ENCODING -1 81
SWIDTH 786 0
DWIDTH 11 0
BBX 10 14 1 -3
BITMAP
0000
1C00
2200
4100
8080
8080
8080
8080
4100
2200
1C00
0200
0100
00C0
ENDCHAR
STARTCHAR C0052
ENCODING -1 82
SWIDTH 571 0
DWIDTH 8 0
BBX 6 14 1 -3
BITMAP
00
F8
84
84
84
F8
C0
A0
90
88
84
00
00
00
ENDCHAR
STARTCHAR C0053
ENCODING -1 83
SWIDTH 500 0
DWIDTH 7 0
BBX 5 14 1 -3
BITMAP
00
70
88
88
80
70
08
08
08
88
70
00
00
00
ENDCHAR
STARTCHAR C0054
ENCODING -1 84
SWIDTH 643 0
DWIDTH 9 0
BBX 7 14 1 -3
BITMAP
00
FE
10
10
10
10
10
10
10
10
10
00
00
00
ENDCHAR
STARTCHAR C0055
ENCODING -1 85
SWIDTH 643 0
DWIDTH 9 0
BBX 7 14 1 -3
BITMAP
00
82
82
82
82
82
82
82
86
8A
72
00
00
00
ENDCHAR
STARTCHAR C0056
ENCODING -1 86
SWIDTH 643 0
DWIDTH 9 0
BBX 7 14 1 -3
BITMAP
00
82
82
82
44
44
44
28
28
10
10
00
00
00
ENDCHAR
STARTCHAR C0057
ENCODING -1 87
SWIDTH 1071 0
DWIDTH 15 0
BBX 13 14 1 -3
BITMAP
0000
8208
8208
8208
4510
4510
4510
28A0
28A0
1040
1040
0000
0000
0000
ENDCHAR
STARTCHAR C0058
ENCODING -1 88
SWIDTH 643 0
DWIDTH 9 0
BBX 7 14 1 -3
BITMAP
00
82
44
44
28
18
10
38
44
44
82
00
00
00
ENDCHAR
STARTCHAR C0059
ENCODING -1 89
SWIDTH 643 0
DWIDTH 9 0
BBX 7 14 1 -3
BITMAP
00
82
82
44
44
28
10
10
10
10
10
00
00
00
ENDCHAR
STARTCHAR C005A
ENCODING -1 90
SWIDTH 643 0
DWIDTH 9 0
BBX 7 14 1 -3
BITMAP
00
FE
02
02
04
08
10
20
40
80
FE
00
00
00
ENDCHAR
STARTCHAR C005B
ENCODING -1 91
SWIDTH 429 0
DWIDTH 6 0
BBX 4 14 1 -3
BITMAP
F0
80
80
80
80
80
80
80
80
80
80
80
F0
00
ENDCHAR
STARTCHAR C005C
ENCODING -1 92
SWIDTH 571 0
DWIDTH 8 0
BBX 6 14 1 -3
BITMAP
00
80
40
40
20
20
10
10
08
08
04
04
00
00
ENDCHAR
STARTCHAR C005D
ENCODING -1 93
SWIDTH 429 0
DWIDTH 6 0
BBX 4 14 1 -3
BITMAP
F0
10
10
10
10
10
10
10
10
10
10
10
F0
00
ENDCHAR
STARTCHAR C005E
ENCODING -1 94
SWIDTH 571 0
DWIDTH 8 0
BBX 7 14 0 -3
BITMAP
00
10
38
54
92
10
10
10
10
10
10
00
00
00
ENDCHAR
STARTCHAR C005F
ENCODING -1 95
SWIDTH 786 0
DWIDTH 11 0
BBX 8 14 2 -3
BITMAP
00
00
00
10
20
40
FF
40
20
10
00
00
00
00
ENDCHAR
STARTCHAR C0060
ENCODING -1 96
SWIDTH 0 0
DWIDTH 0 0
BBX 1 14 0 -3
BITMAP
00
00
00
00
00
00
00
00
00
00
00
00
00
00
ENDCHAR
STARTCHAR C0061
ENCODING -1 97
SWIDTH 571 0
DWIDTH 8 0
BBX 8 14 0 -3
BITMAP
00
00
00
3C
44
84
84
8C
94
A5
46
00
00
00
ENDCHAR
STARTCHAR C0062
ENCODING -1 98
SWIDTH 500 0
DWIDTH 7 0
BBX 6 14 0 -3
BITMAP
80
80
80
98
A4
C4
84
84
88
90
E0
00
00
00
ENDCHAR
STARTCHAR C0063
ENCODING -1 99
SWIDTH 500 0
DWIDTH 7 0
BBX 6 14 0 -3
BITMAP
00
00
00
3C
40
80
80
80
84
88
70
00
00
00
ENDCHAR
STARTCHAR C0064
ENCODING -1 100
SWIDTH 571 0
DWIDTH 8 0
BBX 8 14 0 -3
BITMAP
04
04
04
3C
44
84
84
8C
94
A5
46
00
00
00
ENDCHAR
STARTCHAR C0065
ENCODING -1 101
SWIDTH 500 0
DWIDTH 7 0
BBX 6 14 0 -3
BITMAP
00
00
00
38
44
88
90
A0
C4
88
70
00
00
00
ENDCHAR
STARTCHAR C0066
ENCODING -1 102
SWIDTH 357 0
DWIDTH 5 0
BBX 4 14 0 -3
BITMAP
00
30
40
40
F0
40
40
40
40
40
40
40
40
40
ENDCHAR
STARTCHAR C0067
ENCODING -1 103
SWIDTH 500 0
DWIDTH 7 0
BBX 6 14 0 -3
BITMAP
00
00
00
3C
44
84
84
8C
94
A4
44
04
08
70
ENDCHAR
STARTCHAR C0068
ENCODING -1 104
SWIDTH 571 0
DWIDTH 8 0
BBX 8 14 0 -3
BITMAP
80
80
80
98
A4
C4
84
84
84
85
86
00
00
00
ENDCHAR
STARTCHAR C0069
ENCODING -1 105
SWIDTH 357 0
DWIDTH 5 0
BBX 5 14 0 -3
BITMAP
20
40
00
40
C0
40
40
40
48
50
60
00
00
00
ENDCHAR
STARTCHAR C006A
ENCODING -1 106
SWIDTH 286 0
DWIDTH 4 0
BBX 4 14 0 -3
BITMAP
10
20
00
20
60
20
20
20
20
20
20
20
40
80
ENDCHAR
STARTCHAR C006B
ENCODING -1 107
SWIDTH 571 0
DWIDTH 8 0
BBX 6 14 1 -3
BITMAP
80
80
80
98
A4
C4
C4
B8
90
88
84
00
00
00
ENDCHAR
STARTCHAR C006C
ENCODING -1 108
SWIDTH 357 0
DWIDTH 5 0
BBX 4 14 1 -3
BITMAP
80
80
80
80
80
80
80
80
90
A0
C0
00
00
00
ENDCHAR
STARTCHAR C006D
ENCODING -1 109
SWIDTH 1000 0
DWIDTH 14 0
BBX 14 14 0 -3
BITMAP
0000
0000
0000
CC60
5290
6310
4210
4210
4210
4214
4218
0000
0000
0000
ENDCHAR
STARTCHAR C006E
ENCODING -1 110
SWIDTH 643 0
DWIDTH 9 0
BBX 9 14 0 -3
BITMAP
0000
0000
0000
CC00
5200
6200
4200
4200
4200
4280
4300
0000
0000
0000
ENDCHAR
STARTCHAR C006F
ENCODING -1 111
SWIDTH 500 0
DWIDTH 7 0
BBX 6 14 0 -3
BITMAP
00
00
00
30
48
84
84
84
84
48
30
00
00
00
ENDCHAR
STARTCHAR C0070
ENCODING -1 112
SWIDTH 571 0
DWIDTH 8 0
BBX 7 14 0 -3
BITMAP
00
00
00
4C
D2
62
42
42
44
48
70
40
40
40
ENDCHAR
STARTCHAR C0071
ENCODING -1 113
SWIDTH 571 0
DWIDTH 8 0
BBX 8 14 0 -3
BITMAP
00
00
00
3C
44
84
84
8C
94
A4
44
04
05
06
ENDCHAR
STARTCHAR C0072
ENCODING -1 114
SWIDTH 429 0
DWIDTH 6 0
BBX 6 14 0 -3
BITMAP
00
00
00
DC
60
40
40
40
40
40
40
00
00
00
ENDCHAR
STARTCHAR C0073
ENCODING -1 115
SWIDTH 500 0
DWIDTH 7 0
BBX 6 14 0 -3
BITMAP
00
00
00
3C
40
80
78
04
04
08
F0
00
00
00
ENDCHAR
STARTCHAR C0074
ENCODING -1 116
SWIDTH 429 0
DWIDTH 6 0
BBX 5 14 0 -3
BITMAP
00
00
40
78
C0
40
40
40
48
50
60
00
00
00
ENDCHAR
STARTCHAR C0075
ENCODING -1 117
SWIDTH 643 0
DWIDTH 9 0
BBX 9 14 0 -3
BITMAP
0000
0000
0000
4200
C200
4200
4200
4600
4A00
5280
2300
0000
0000
0000
ENDCHAR
STARTCHAR C0076
ENCODING -1 118
SWIDTH 500 0
DWIDTH 7 0
BBX 6 14 0 -3
BITMAP
00
00
00
C8
44
44
44
44
48
50
60
00
00
00
ENDCHAR
STARTCHAR C0077
ENCODING -1 119
SWIDTH 857 0
DWIDTH 12 0
BBX 11 14 0 -3
BITMAP
0000
0000
0000
C440
4420
4A20
4A20
5140
5140
6080
4080
0000
0000
0000
ENDCHAR
STARTCHAR C0078
ENCODING -1 120
SWIDTH 643 0
DWIDTH 9 0
BBX 8 14 0 -3
BITMAP
00
00
00
C1
22
24
18
18
24
44
83
00
00
00
ENDCHAR
STARTCHAR C0079
ENCODING -1 121
SWIDTH 571 0
DWIDTH 8 0
BBX 7 14 0 -3
BITMAP
00
00
00
42
C2
42
42
46
4A
52
22
02
04
38
ENDCHAR
STARTCHAR C007A
ENCODING -1 122
SWIDTH 500 0
DWIDTH 7 0
BBX 6 14 0 -3
BITMAP
00
00
00
FC
04
08
10
20
40
80
FC
00
00
00
ENDCHAR
STARTCHAR C007B
ENCODING -1 123
SWIDTH 357 0
DWIDTH 5 0
BBX 4 14 0 -3
BITMAP
30
40
40
40
40
80
80
40
40
40
40
30
00
00
ENDCHAR
STARTCHAR C007C
ENCODING -1 124
SWIDTH 357 0
DWIDTH 5 0
BBX 1 14 2 -3
BITMAP
80
80
80
80
80
80
80
80
80
80
80
80
80
80
ENDCHAR
STARTCHAR C007D
ENCODING -1 125
SWIDTH 357 0
DWIDTH 5 0
BBX 4 14 1 -3
BITMAP
C0
20
20
20
20
10
10
20
20
20
20
C0
00
00
ENDCHAR
STARTCHAR C007E
ENCODING -1 126
SWIDTH 643 0
DWIDTH 9 0
BBX 7 14 1 -3
BITMAP
00
00
60
92
0C
00
00
00
00
00
00
00
00
00
ENDCHAR
STARTCHAR C007F
ENCODING -1 127
SWIDTH 0 0
DWIDTH 0 0
BBX 1 14 0 -3
BITMAP
00
00
00
00
00
00
00
00
00
00
00
00
00
00
ENDCHAR
ENDFONT
